HIERARCHY
ROOT Root
{
  OFFSET 0.0 0.0 0.0
  CHANNELS 6 Xposition Yposition Zposition Zrotation Yrotation Xrotation
  JOINT Hips
  {
    OFFSET 0.0 100.0 0.0
    CHANNELS 6 Xposition Yposition Zposition Zrotation Yrotation Xrotation
    JOINT Spine1
    {
      OFFSET 5.003913 -0.037094 -0.013727
      CHANNELS 3 Zrotation Yrotation Xrotation
      JOINT Spine2
      {
        OFFSET 7.125363 -1e-06 0.0
        CHANNELS 3 Zrotation Yrotation Xrotation
        JOINT Chest
        {
          OFFSET 7.594027 1e-06 0.0
          CHANNELS 3 Zrotation Yrotation Xrotation
          JOINT Neck1
          {
            OFFSET 26.313086 -0.460272 -0.181672
            CHANNELS 3 Zrotation Yrotation Xrotation
            JOINT Neck2
            {
              OFFSET 8.045911 0.0 0.0
              CHANNELS 3 Zrotation Yrotation Xrotation
              JOINT Head
              {
                OFFSET 6.432774 0.0 0.0
                CHANNELS 3 Zrotation Yrotation Xrotation
                JOINT HeadEnd
                {
                  OFFSET 16.169773 0.06451 0.00362
                  CHANNELS 3 Zrotation Yrotation Xrotation
                }
                JOINT Jaw
                {
                  OFFSET 0.108741 3.12938 0.002639
                  CHANNELS 3 Zrotation Yrotation Xrotation
                }
                JOINT LeftEye
                {
                  OFFSET 4.45173 8.166359 3.206392
                  CHANNELS 3 Zrotation Yrotation Xrotation
                }
                JOINT RightEye
                {
                  OFFSET 4.436895 8.135758 -3.222429
                  CHANNELS 3 Zrotation Yrotation Xrotation
                }
              }
            }
          }
          JOINT LeftShoulder
          {
            OFFSET 23.218927 5.195579 1.621656
            CHANNELS 3 Zrotation Yrotation Xrotation
            JOINT LeftArm
            {
              OFFSET 15.902118 2e-06 -2e-06
              CHANNELS 3 Zrotation Yrotation Xrotation
              JOINT LeftForeArm
              {
                OFFSET 28.739307 0.0 -1e-06
                CHANNELS 3 Zrotation Yrotation Xrotation
                JOINT LeftHand
                {
                  OFFSET 27.093981 -4e-06 0.0
                  CHANNELS 3 Zrotation Yrotation Xrotation
                  JOINT LeftHandThumb1
                  {
                    OFFSET 2.276781 3.380274 0.83384
                    CHANNELS 3 Zrotation Yrotation Xrotation
                    JOINT LeftHandThumb2
                    {
                      OFFSET 4.705309 -1e-06 -1e-06
                      CHANNELS 3 Zrotation Yrotation Xrotation
                      JOINT LeftHandThumb3
                      {
                        OFFSET 2.798515 0.0 3e-06
                        CHANNELS 3 Zrotation Yrotation Xrotation
                        JOINT LeftHandThumbEnd
                        {
                          OFFSET 3.180793 4e-06 -4e-06
                          CHANNELS 3 Zrotation Yrotation Xrotation
                        }
                      }
                    }
                  }
                  JOINT LeftHandIndex1
                  {
                    OFFSET 3.247786 2.352677 0.137192
                    CHANNELS 3 Zrotation Yrotation Xrotation
                    JOINT LeftHandIndex2
                    {
                      OFFSET 6.367095 1e-06 0.0
                      CHANNELS 3 Zrotation Yrotation Xrotation
                      JOINT LeftHandIndex3
                      {
                        OFFSET 3.662364 0.0 0.0
                        CHANNELS 3 Zrotation Yrotation Xrotation
                        JOINT LeftHandIndex4
                        {
                          OFFSET 2.329242 4e-06 -4e-06
                          CHANNELS 3 Zrotation Yrotation Xrotation
                          JOINT LeftHandIndexEnd
                          {
                            OFFSET 2.767823 1e-06 0.0
                            CHANNELS 3 Zrotation Yrotation Xrotation
                          }
                        }
                      }
                    }
                  }
                  JOINT LeftHandMiddle1
                  {
                    OFFSET 3.163612 0.945023 -0.406112
                    CHANNELS 3 Zrotation Yrotation Xrotation
                    JOINT LeftHandMiddle2
                    {
                      OFFSET 6.276789 3e-06 0.0
                      CHANNELS 3 Zrotation Yrotation Xrotation
                      JOINT LeftHandMiddle3
                      {
                        OFFSET 4.35652 -1e-06 4e-06
                        CHANNELS 3 Zrotation Yrotation Xrotation
                        JOINT LeftHandMiddle4
                        {
                          OFFSET 2.996877 0.0 8e-06
                          CHANNELS 3 Zrotation Yrotation Xrotation
                          JOINT LeftHandMiddleEnd
                          {
                            OFFSET 2.323256 3e-06 -4e-06
                            CHANNELS 3 Zrotation Yrotation Xrotation
                          }
                        }
                      }
                    }
                  }
                  JOINT LeftHandRing1
                  {
                    OFFSET 2.882606 -0.309162 0.107445
                    CHANNELS 3 Zrotation Yrotation Xrotation
                    JOINT LeftHandRing2
                    {
                      OFFSET 6.033198 0.0 4e-06
                      CHANNELS 3 Zrotation Yrotation Xrotation
                      JOINT LeftHandRing3
                      {
                        OFFSET 4.350578 3e-06 0.0
                        CHANNELS 3 Zrotation Yrotation Xrotation
                        JOINT LeftHandRing4
                        {
                          OFFSET 2.651321 2e-06 -7e-06
                          CHANNELS 3 Zrotation Yrotation Xrotation
                          JOINT LeftHandRingEnd
                          {
                            OFFSET 1.937663 1e-06 -4e-06
                            CHANNELS 3 Zrotation Yrotation Xrotation
                          }
                        }
                      }
                    }
                  }
                  JOINT LeftHandPinky1
                  {
                    OFFSET 2.865315 -1.525436 0.575687
                    CHANNELS 3 Zrotation Yrotation Xrotation
                    JOINT LeftHandPinky2
                    {
                      OFFSET 5.54936 1e-06 -8e-06
                      CHANNELS 3 Zrotation Yrotation Xrotation
                      JOINT LeftHandPinky3
                      {
                        OFFSET 3.070974 0.0 -4e-06
                        CHANNELS 3 Zrotation Yrotation Xrotation
                        JOINT LeftHandPinky4
                        {
                          OFFSET 1.549672 1e-06 0.0
                          CHANNELS 3 Zrotation Yrotation Xrotation
                          JOINT LeftHandPinkyEnd
                          {
                            OFFSET 1.952123 0.0 0.0
                            CHANNELS 3 Zrotation Yrotation Xrotation
                          }
                        }
                      }
                    }
                  }
                }
              }
            }
          }
          JOINT RightShoulder
          {
            OFFSET 23.161716 5.296122 -1.380114
            CHANNELS 3 Zrotation Yrotation Xrotation
            JOINT RightArm
            {
              OFFSET -16.027195 -2e-06 1.1e-05
              CHANNELS 3 Zrotation Yrotation Xrotation
              JOINT RightForeArm
              {
                OFFSET -28.736639 4e-06 2e-06
                CHANNELS 3 Zrotation Yrotation Xrotation
                JOINT RightHand
                {
                  OFFSET -27.133619 6e-06 0.0
                  CHANNELS 3 Zrotation Yrotation Xrotation
                  JOINT RightHandThumb1
                  {
                    OFFSET -2.274328 -3.351035 -0.83067
                    CHANNELS 3 Zrotation Yrotation Xrotation
                    JOINT RightHandThumb2
                    {
                      OFFSET -4.703594 -3e-06 2e-06
                      CHANNELS 3 Zrotation Yrotation Xrotation
                      JOINT RightHandThumb3
                      {
                        OFFSET -2.794935 -4e-06 -3e-06
                        CHANNELS 3 Zrotation Yrotation Xrotation
                        JOINT RightHandThumbEnd
                        {
                          OFFSET -3.183852 4e-06 1e-06
                          CHANNELS 3 Zrotation Yrotation Xrotation
                        }
                      }
                    }
                  }
                  JOINT RightHandIndex1
                  {
                    OFFSET -3.253496 -2.33755 -0.127667
                    CHANNELS 3 Zrotation Yrotation Xrotation
                    JOINT RightHandIndex2
                    {
                      OFFSET -6.344434 0.0 0.0
                      CHANNELS 3 Zrotation Yrotation Xrotation
                      JOINT RightHandIndex3
                      {
                        OFFSET -3.654871 0.0 -8e-06
                        CHANNELS 3 Zrotation Yrotation Xrotation
                        JOINT RightHandIndex4
                        {
                          OFFSET -2.327586 -1e-06 0.0
                          CHANNELS 3 Zrotation Yrotation Xrotation
                          JOINT RightHandIndexEnd
                          {
                            OFFSET -2.770001 3e-06 8e-06
                            CHANNELS 3 Zrotation Yrotation Xrotation
                          }
                        }
                      }
                    }
                  }
                  JOINT RightHandMiddle1
                  {
                    OFFSET -3.168223 -0.944764 0.411762
                    CHANNELS 3 Zrotation Yrotation Xrotation
                    JOINT RightHandMiddle2
                    {
                      OFFSET -6.266691 -1e-06 -4e-06
                      CHANNELS 3 Zrotation Yrotation Xrotation
                      JOINT RightHandMiddle3
                      {
                        OFFSET -4.348901 0.0 0.0
                        CHANNELS 3 Zrotation Yrotation Xrotation
                        JOINT RightHandMiddle4
                        {
                          OFFSET -3.00024 2e-06 -4e-06
                          CHANNELS 3 Zrotation Yrotation Xrotation
                          JOINT RightHandMiddleEnd
                          {
                            OFFSET -2.321477 -4e-06 -4e-06
                            CHANNELS 3 Zrotation Yrotation Xrotation
                          }
                        }
                      }
                    }
                  }
                  JOINT RightHandRing1
                  {
                    OFFSET -2.885654 0.293261 -0.119232
                    CHANNELS 3 Zrotation Yrotation Xrotation
                    JOINT RightHandRing2
                    {
                      OFFSET -6.032835 -1e-06 -4e-06
                      CHANNELS 3 Zrotation Yrotation Xrotation
                      JOINT RightHandRing3
                      {
                        OFFSET -4.33881 0.0 -4e-06
                        CHANNELS 3 Zrotation Yrotation Xrotation
                        JOINT RightHandRing4
                        {
                          OFFSET -2.654903 -4e-06 -4e-06
                          CHANNELS 3 Zrotation Yrotation Xrotation
                          JOINT RightHandRingEnd
                          {
                            OFFSET -1.935122 0.0 4e-06
                            CHANNELS 3 Zrotation Yrotation Xrotation
                          }
                        }
                      }
                    }
                  }
                  JOINT RightHandPinky1
                  {
                    OFFSET -2.866241 1.503904 -0.60527
                    CHANNELS 3 Zrotation Yrotation Xrotation
                    JOINT RightHandPinky2
                    {
                      OFFSET -5.553177 -2e-06 0.0
                      CHANNELS 3 Zrotation Yrotation Xrotation
                      JOINT RightHandPinky3
                      {
                        OFFSET -3.062664 -1e-06 -4e-06
                        CHANNELS 3 Zrotation Yrotation Xrotation
                        JOINT RightHandPinky4
                        {
                          OFFSET -1.546529 2e-06 4e-06
                          CHANNELS 3 Zrotation Yrotation Xrotation
                          JOINT RightHandPinkyEnd
                          {
                            OFFSET -1.952341 0.0 -4e-06
                            CHANNELS 3 Zrotation Yrotation Xrotation
                          }
                        }
                      }
                    }
                  }
                }
              }
            }
          }
        }
      }
    }
    JOINT LeftLeg
    {
      OFFSET -8.443107 2.567604 10.043214
      CHANNELS 3 Zrotation Yrotation Xrotation
      JOINT LeftShin
      {
        OFFSET 43.229198 1e-06 -1e-06
        CHANNELS 3 Zrotation Yrotation Xrotation
        JOINT LeftFoot
        {
          OFFSET 42.298611 1e-06 1e-06
          CHANNELS 3 Zrotation Yrotation Xrotation
          JOINT LeftToeBase
          {
            OFFSET 14.165858 1e-06 0.0
            CHANNELS 3 Zrotation Yrotation Xrotation
            JOINT LeftToeEnd
            {
              OFFSET 6.7141 -0.234461 0.0
              CHANNELS 3 Zrotation Yrotation Xrotation
            }
          }
        }
      }
    }
    JOINT RightLeg
    {
      OFFSET -8.303923 2.592729 -10.047278
      CHANNELS 3 Zrotation Yrotation Xrotation
      JOINT RightShin
      {
        OFFSET -43.369682 0.0 1e-06
        CHANNELS 3 Zrotation Yrotation Xrotation
        JOINT RightFoot
        {
          OFFSET -42.260784 4e-06 2e-06
          CHANNELS 3 Zrotation Yrotation Xrotation
          JOINT RightToeBase
          {
            OFFSET -14.222245 -2e-06 -1e-06
            CHANNELS 3 Zrotation Yrotation Xrotation
            JOINT RightToeEnd
            {
              OFFSET -6.660062 0.232574 -2e-06
              CHANNELS 3 Zrotation Yrotation Xrotation
            }
          }
        }
      }
    }
  }
}
MOTION
Frames: 4
Frame Time: 0.03333333333333333
0.0 0.0 0.0 0.0 -0.0 0.0 -12.832816 48.03891 148.659058 83.245163 -51.758381 98.016312 10.812361 1.400228 -0.67303 -4.696969 -0.092185 -1.710328 27.251652 4.149502 -1.736708 18.395418 -4.723939 2.872867 -2.685472 -0.904035 -0.107312 -33.320515 0.044161 -0.347184 5e-06 -0.0 -0.0 -0.157707 -0.139876 0.084121 -0.107725 -0.18836 0.129721 -0.111469 -0.098992 0.052362 -20.330141 -70.665977 25.945391 86.620407 1.169842 -35.124683 10.40655 0.298998 0.029474 27.307112 68.208435 27.221302 17.636627 -26.322744 52.411205 -19.466665 -14.395602 29.410395 -1e-06 -8.774821 -1e-06 16.811714 -18.245028 5.451106 -0.609776 -1.795655 -3.889328 -4.807089 -11.046814 -2.93785 2e-06 -20.976021 1e-06 -5.019973 -25.033566 -4.031882 6e-06 0.0 0.0 -10.634535 -5.68697 -3.565588 10.573275 -17.922956 -3.113901 3e-06 -13.821212 2e-06 -0.501777 -31.181507 -4.027016 -11.303068 -59.071655 6.932788 -13.982715 -7.150198 -2.875042 13.77273 -8.401497 -3.218243 0.347733 -34.211555 0.771655 -0.963029 -17.73337 2.62102 -1e-06 -0.0 0.0 -17.346424 -20.095224 -4.20178 21.757561 -1.638376 3.866428 1e-06 -6.338825 0.0 -1.69759 -22.591751 -6.194006 -0.0 -5e-06 -2e-06 -167.288788 -81.18412 -2.653168 89.538422 -16.115351 -27.127037 21.963425 0.495686 0.229061 14.371003 81.58931 23.806349 22.182112 -20.375887 49.933308 -16.701807 -16.743528 28.476524 -4e-06 -12.6906 -3e-06 16.885403 -17.814432 2.054544 -0.105918 -1.513855 -4.275879 -5.039041 -5.612871 -2.953557 5e-06 -11.020521 -2e-06 -6.111296 -15.895328 -3.840472 1e-06 1e-06 -1e-06 -10.28337 -5.680288 -4.341837 11.028294 -11.302402 -2.372633 -1.384268 -14.238579 -6.32012 -0.625437 -26.924179 -3.827601 -3.947566 -49.05463 -4.559344 -13.708523 -7.363472 -3.720938 18.141146 -14.052736 -3.242674 7e-06 -18.787264 -2e-06 -0.429711 -8.456041 2.555503 0.0 -0.0 1e-06 -15.923532 -20.094475 -5.473584 30.419205 -7.190825 1.735926 1e-06 -8.162927 1e-06 -1.861903 -22.861467 -6.16794 0.0 -2e-06 -1e-06 153.105804 -6.464116 4.362581 84.457649 -1.987391 0.039998 -95.77961 4.147011 23.093319 -54.726471 1.917693 1.31869 -1.000001 -2e-06 1e-06 -59.772774 -2.195826 7.641152 124.440308 0.315743 0.220785 -107.446777 5.012337 15.01188 -50.821285 1.285541 1.482033 -1.000006 0.0 1e-06 
0.0 0.0 0.0 0.0 -0.0 0.0 -13.091106 48.02953 149.558624 82.967567 -52.3955 98.175987 10.725747 1.326733 -0.702279 -4.724636 -0.158432 -1.625018 26.848392 4.130982 -1.647841 17.871538 -4.590674 2.886988 -2.696658 -0.805132 -0.262201 -33.62952 0.163948 -0.54416 7e-06 -0.0 0.0 -0.167323 -0.16076 0.095737 -0.052402 -0.210639 0.15473 -0.05827 -0.120456 0.053084 -20.771723 -70.10836 26.153948 87.19136 0.38605 -34.698242 10.376626 0.236309 0.001678 29.04973 69.620079 28.723251 17.636625 -26.322729 52.411182 -19.46666 -14.3956 29.410389 -1e-06 -8.774821 -1e-06 16.686134 -18.133703 5.503907 -0.609776 -1.795652 -3.889328 -4.807088 -11.046811 -2.93785 5e-06 -20.976019 -0.0 -5.019969 -25.03356 -4.031881 6e-06 1e-06 0.0 -10.634533 -5.686967 -3.565588 10.573272 -17.922953 -3.113901 4e-06 -13.821208 1e-06 -0.501775 -31.181505 -4.027015 -11.23423 -58.960617 6.912155 -13.982713 -7.150195 -2.875041 13.77273 -8.401496 -3.218242 0.347735 -34.211555 0.771654 -0.963028 -17.73337 2.62102 -0.0 0.0 -0.0 -17.346415 -20.095213 -4.201782 21.757555 -1.638375 3.866426 2e-06 -6.338823 1e-06 -1.697588 -22.591742 -6.194005 -0.0 -4e-06 -1e-06 -166.793182 -81.268372 -3.024744 88.917847 -17.13295 -27.503115 24.650045 0.751034 0.244081 18.170862 81.46376 29.097437 22.182112 -20.375898 49.933315 -16.701809 -16.743526 28.476528 -3e-06 -12.6906 -1e-06 16.96863 -17.872459 1.986312 -0.105921 -1.513856 -4.275879 -5.039041 -5.612873 -2.953556 4e-06 -11.020525 -2e-06 -6.111297 -15.89533 -3.840469 -0.0 0.0 2e-06 -10.28337 -5.680289 -4.341835 11.028292 -11.302404 -2.372633 -1.384267 -14.238585 -6.32012 -0.625439 -26.924191 -3.8276 -3.915417 -49.120831 -4.549327 -13.708526 -7.363477 -3.720938 18.141146 -14.052739 -3.242673 5e-06 -18.787271 -1e-06 -0.429713 -8.456045 2.555502 0.0 1e-06 -0.0 -15.923538 -20.094484 -5.473579 30.41921 -7.190826 1.735923 1e-06 -8.162925 1e-06 -1.861904 -22.861469 -6.167942 -1e-06 -3e-06 -1e-06 153.43663 -6.853565 4.304265 82.85006 -2.004858 0.120675 -94.884056 4.220105 23.218796 -54.140839 1.916208 1.351677 -1.0 -1e-06 0.0 -59.436771 -1.688042 7.282105 123.356644 0.443214 0.270982 -106.519943 4.621477 15.565016 -51.102299 1.259452 1.439819 -1.000003 -0.0 0.0 
0.0 0.0 0.0 0.0 -0.0 0.0 -13.427867 48.121216 150.443024 82.948151 -52.994278 98.780769 10.60207 1.28671 -0.867502 -4.827739 -0.393309 -1.743131 26.59137 4.062029 -1.803306 17.277603 -4.188486 2.92264 -2.743573 -0.48532 -0.400765 -33.697697 0.199619 -0.763322 7e-06 0.0 -0.0 -0.189207 -0.085716 0.061493 -0.058876 -0.130228 0.119849 -0.075208 -0.050791 0.025898 -19.918839 -69.668243 25.124941 87.458633 -0.081235 -34.229706 9.914669 0.096136 -0.012141 30.262232 70.543236 29.614887 17.636633 -26.322733 52.411209 -19.466663 -14.395598 29.410395 -2e-06 -8.774822 -2e-06 16.59057 -18.064482 5.587106 -0.609776 -1.795654 -3.889329 -4.80709 -11.046813 -2.937851 5e-06 -20.976019 -0.0 -5.019969 -25.03356 -4.031884 6e-06 0.0 2e-06 -10.634537 -5.686971 -3.565589 10.573277 -17.922955 -3.113901 3e-06 -13.821209 1e-06 -0.501777 -31.181511 -4.027018 -10.939353 -58.891457 6.800897 -13.982716 -7.150198 -2.875043 13.772731 -8.401493 -3.218242 0.347734 -34.211555 0.771654 -0.963029 -17.73337 2.62102 -1e-06 0.0 -0.0 -17.346422 -20.095219 -4.201785 21.757563 -1.638376 3.86643 1e-06 -6.338823 1e-06 -1.697589 -22.591751 -6.194009 -1e-06 -5e-06 -2e-06 -168.537582 -81.693314 -1.077648 88.262154 -17.814713 -28.748028 28.403412 0.821509 0.201138 27.615257 80.76516 40.796501 22.182117 -20.375898 49.933327 -16.701811 -16.74353 28.476532 -2e-06 -12.690601 -2e-06 17.073002 -17.973553 1.969897 -0.105919 -1.513857 -4.275881 -5.03904 -5.61287 -2.953557 3e-06 -11.020525 0.0 -6.1113 -15.895334 -3.840471 -1e-06 1e-06 1e-06 -10.283369 -5.68029 -4.341837 11.028294 -11.302404 -2.372633 -1.384268 -14.238583 -6.320121 -0.625439 -26.924189 -3.827602 -3.911535 -49.42564 -4.52175 -13.708524 -7.363476 -3.72094 18.14115 -14.05274 -3.242675 6e-06 -18.78727 -2e-06 -0.429712 -8.456044 2.555504 0.0 -0.0 -0.0 -15.923536 -20.094484 -5.473583 30.41921 -7.190823 1.735926 1e-06 -8.162925 1e-06 -1.861902 -22.861469 -6.167941 -0.0 -4e-06 -1e-06 153.216217 -6.76981 4.568736 81.634415 -2.212697 0.10649 -93.562477 4.397628 23.59244 -52.60133 1.893949 1.386361 -0.999999 -1e-06 -1e-06 -59.001434 -1.827471 6.683757 122.227135 0.561537 0.316494 -105.571518 4.349247 16.084993 -50.788975 1.236443 1.419846 -1.000006 1e-06 2e-06 
0.0 0.0 0.0 0.0 -0.0 0.0 -13.867526 48.248466 151.120758 83.311928 -53.446205 99.546799 10.546479 1.09291 -1.025255 -4.895637 -0.592386 -2.02475 26.355818 3.773119 -2.275082 16.811468 -3.072438 3.03257 -2.741224 -0.635915 -0.651652 -33.685921 0.193317 -1.061508 7e-06 -0.0 0.0 -0.198086 -0.095507 0.062124 0.009414 -0.145332 0.131204 -0.028695 -0.052028 0.016285 -17.935575 -69.353027 23.015182 87.332993 -0.341438 -33.466503 9.284523 -0.167119 -0.038448 30.718315 71.189163 29.576191 17.636629 -26.322727 52.411182 -19.466652 -14.395594 29.410378 1e-06 -8.774819 -2e-06 16.44198 -18.026896 5.646369 -0.609777 -1.795653 -3.889326 -4.807088 -11.046809 -2.93785 5e-06 -20.976013 2e-06 -5.01997 -25.033554 -4.031881 6e-06 1e-06 2e-06 -10.634533 -5.68697 -3.565588 10.573271 -17.922947 -3.113898 3e-06 -13.821206 2e-06 -0.501777 -31.181501 -4.027015 -11.068321 -58.853062 7.039229 -13.982714 -7.150197 -2.875041 13.77273 -8.401491 -3.21824 0.347734 -34.211544 0.771655 -0.963028 -17.733366 2.62102 -1e-06 -0.0 -0.0 -17.346418 -20.095217 -4.20178 21.757557 -1.638376 3.866429 2e-06 -6.338822 1e-06 -1.69759 -22.591749 -6.194006 -0.0 -5e-06 -2e-06 -174.396133 -82.226578 4.91677 87.752411 -18.314838 -30.710125 34.072201 1.039152 0.090488 40.804737 79.389854 56.554718 22.182121 -20.375895 49.933315 -16.701811 -16.743526 28.476528 -2e-06 -12.690601 -2e-06 17.442247 -18.139547 1.826347 -0.105921 -1.513857 -4.275882 -5.039041 -5.612871 -2.953558 2e-06 -11.020525 1e-06 -6.1113 -15.895334 -3.840472 1e-06 0.0 2e-06 -10.283372 -5.680289 -4.341838 11.028293 -11.302406 -2.372632 -1.384269 -14.238581 -6.320122 -0.625438 -26.924191 -3.827604 -3.990065 -49.683624 -4.648836 -13.708526 -7.363478 -3.720939 18.141148 -14.052737 -3.242674 6e-06 -18.787266 -1e-06 -0.429711 -8.456041 2.555504 -0.0 -1e-06 0.0 -15.923538 -20.094484 -5.473585 30.419214 -7.190827 1.735927 1e-06 -8.162925 2e-06 -1.861903 -22.861469 -6.167943 -1e-06 -4e-06 -1e-06 152.601425 -6.38904 5.066323 81.394089 -2.376717 0.12434 -91.470596 5.220493 23.227482 -49.807739 1.911806 1.45026 -1.0 -0.0 -0.0 -58.624367 -2.362008 6.013237 121.306892 0.631016 0.284695 -104.216415 4.235643 16.915411 -50.798584 1.246744 1.437366 -1.000003 1e-06 1e-06 
